Coordinates
version=1
nRows=7
nColumns=33
inDegrees=yes

Units are S.I. units (second, meters, Newtons, ...)
Angles are in degrees.

endheader
time	ground_thorax_rot_x	ground_thorax_rot_y	ground_thorax_rot_z	ground_thorax_tx	ground_thorax_ty	ground_thorax_tz	clav_prot_r	clav_elev_r	scapula_abduction_r	scapula_elevation_r	scapula_upward_rot_r	scapula_winging_r	shoulder_elv_r	plane_of_elev_r	axial_rot_r	elbow_flexion_r	pro_sup_r	wrist_flex_r	wrist_dev_r	clav_prot_l	clav_elev_l	scapula_abduction_l	scapula_elevation_l	scapula_upward_rot_l	scapula_winging_l	shoulder_elv_l	plane_of_elev_l	axial_rot_l	elbow_flexion_l	pro_sup_l	wrist_flex_l	wrist_dev_l
      7.07000000	     30.32149829	     26.51466091	     38.06512016	    -35.85812973	    845.69521504	    -46.15100421	     13.27491308	     34.27684503	     27.64973169	     45.00000000	    -45.00000000	   2071.79603302	     72.18287718	     22.54221943	   -168.67592159	   1077.60430709	   -203.76859856	     15.39252235	     14.98748603	     -7.55822174	    -45.00000000	    -39.67584996	     45.00000000	    -45.00000000	   5145.52615066	  -2607.32268543	    133.41435223	   -122.09424975	   1430.26441418	    401.90685017	     13.90441824	    -22.35728310
      7.08000000	     30.26352776	     26.67462982	     38.31711251	    -33.13793127	    844.93232135	    -46.11168991	     13.18004033	     34.29742012	     27.74079074	     45.00000000	    -45.00000000	   2071.89300730	     72.13162598	     22.76691177	   -169.32803794	   1077.54251558	   -204.25758896	     15.15165581	     15.11004964	     -7.37665756	    -45.00000000	    -39.63831654	     45.00000000	    -45.00000000	   5145.44034177	  -2607.27196271	    133.21456659	   -121.61611506	   1430.23546624	    401.72228658	     14.11515833	    -22.16965426
      7.09000000	     30.16277407	     26.83389195	     38.62326208	    -30.35072665	    844.14911862	    -46.07742881	     13.41252608	     34.37932813	     27.96031545	     45.00000000	    -45.00000000	   2072.03858992	     71.89597788	     22.79541935	   -169.85788812	   1077.44080634	   -204.60399372	     14.90785856	     15.25143426	     -7.69631525	    -45.00000000	    -39.53541981	     45.00000000	    -45.00000000	   5145.25588619	  -2607.18520988	    133.21885164	   -120.84389999	   1430.24865281	    401.52739069	     14.27930750	    -21.90847763
      7.10000000	     30.05309285	     27.09890850	     38.99057011	    -27.49190690	    843.32241725	    -46.04516320	     13.22197684	     34.33520392	     28.00995139	     45.00000000	    -45.00000000	   2072.18632034	     71.94953418	     22.92348532	   -170.58211759	   1077.47564461	   -204.84067454	     14.62989995	     15.34842823	     -7.48334950	    -45.00000000	    -39.61346778	     45.00000000	    -45.00000000	   5145.14869766	  -2607.18345581	    133.00408019	   -120.36474916	   1430.13630363	    401.40557650	     14.51245398	    -21.64742660
      7.11000000	     30.00830204	     27.29553576	     39.27875551	    -24.55410867	    842.42932127	    -46.01163477	     13.27709178	     34.37099832	     28.15806197	     45.00000000	    -45.00000000	   2072.28925536	     71.91656757	     23.04953682	   -171.14507631	   1077.41735300	   -204.92618174	     14.39097714	     15.44229791	     -7.55568295	    -45.00000000	    -39.54804912	     45.00000000	    -45.00000000	   5144.97955149	  -2607.14806737	    132.87349841	   -119.67920143	   1430.13365994	    401.26847766	     14.68262879	    -21.38614217
      7.12000000	     29.90119501	     27.50105954	     39.66923593	    -21.53242072	    841.45193909	    -45.97406921	     13.39951860	     34.45143315	     28.37544671	     45.00000000	    -45.00000000	   2072.40508134	     71.79123481	     23.09567787	   -171.70740311	   1077.38937803	   -204.89649836	     14.15395501	     15.51573786	     -7.76590385	    -45.00000000	    -39.47492631	     45.00000000	    -45.00000000	   5144.80449398	  -2607.09761792	    132.82969118	   -119.00846313	   1430.11142367	    401.16863523	     14.83520361	    -21.10518799
      7.13000000	     29.79819808	     27.71090292	     40.00677196	    -18.42149702	    840.37581356	    -45.92986612	     13.26944804	     34.40114389	     28.39705259	     45.00000000	    -45.00000000	   2072.57177793	     71.76210081	     23.25220522	   -172.22870468	   1077.35139617	   -204.77840968	     13.91185191	     15.58609109	     -7.64058220	    -45.00000000	    -39.42872871	     45.00000000	    -45.00000000	   5144.72227949	  -2607.09913868	    132.63009690	   -118.52585894	   1430.13627593	    401.11905291	     14.98281886	    -20.85242237
